{
  "accessors": [
    {
      "bufferView": 0,
      "componentType": 5125,
      "count": 2076,
      "type": "SCALAR"
    },
    {
      "bufferView": 1,
      "componentType": 5126,
      "count": 586,
      "max": [
        0.04212237826742338,
        0.01466833297872333,
        0.0025999999343184746
      ],
      "min": [
        -0.042122378267423155,
        -0.01466833297872333,
        -0.0025999999343184746
      ],
      "type": "VEC3"
    },
    {
      "bufferView": 2,
      "componentType": 5126,
      "count": 586,
      "max": [
        0.999998904153451,
        0.9999996763061195,
        1.0
      ],
      "min": [
        -0.9999999996045532,
        -0.9999966451705982,
        -1.0
      ],
      "type": "VEC3"
    },
    {
      "bufferView": 3,
      "componentType": 5126,
      "count": 586,
      "max": [
        1.0,
        0.616054126543881
      ],
      "min": [
        0.0,
        0.0
      ],
      "type": "VEC2"
    }
  ],
  "asset": {
    "generator": "Adobe Illustrator",
    "version": "2.0"
  },
  "bufferViews": [
    {
      "buffer": 0,
      "byteLength": 8304,
      "target": 34963
    },
    {
      "buffer": 0,
      "byteLength": 7032,
      "byteOffset": 8304,
      "target": 34962
    },
    {
      "buffer": 0,
      "byteLength": 7032,
      "byteOffset": 15336,
      "target": 34962
    },
    {
      "buffer": 0,
      "byteLength": 4688,
      "byteOffset": 22368,
      "target": 34962
    }
  ],
  "buffers": [
    {
      "byteLength": 27056,
      "uri": "data:application/octet-stream;base64,"
    }
  ],
  "materials": [
    {
      "doubleSided": true,
      "pbrMetallicRoughness": {
        "baseColorFactor": [
          0.9999999403953552,
          0.9999999403953552,
          0.0,
          1.0
        ],
        "metallicFactor": 0.699999988079071,
        "roughnessFactor": 0.46000000834465027
      }
    }
  ],
  "meshes": [
    {
      "primitives": [
        {
          "attributes": {
            "NORMAL": 2,
            "POSITION": 1,
            "TEXCOORD_0": 3
          },
          "indices": 0,
          "material": 0,
          "mode": 4
        }
      ]
    }
  ],
  "nodes": [
    {
      "mesh": 0
    }
  ],
  "scenes": [
    {
      "nodes": [
        0
      ]
    }
  ]
}
